<mxfile host="app.diagrams.net" modified="2024-03-20T07:02:56.605Z" agent="Mozilla/5.0 (Macintosh; Intel Mac OS X 10_15_7) AppleWebKit/537.36 (KHTML, like Gecko) Chrome/122.0.0.0 Safari/537.36" version="24.0.7" etag="RMlh9PLGv5rf3fj_Kc9D" type="github">
  <diagram name="第 1 页" id="ms3WE_YEt4wqLsz2AELK">
    <mxGraphModel>
      <root>
        <mxCell id="0" />
        <mxCell id="1" parent="0" />
      </root>
    </mxGraphModel>
  </diagram>
</mxfile>
